<svg xmlns="http://www.w3.org/2000/svg" viewBox="0 0 64 64">
  <defs>
    <linearGradient id="hintergrund" x1="0" y1="0" x2="1" y2="1">
      <stop offset="0%" stop-color="#0f766e" />
      <stop offset="100%" stop-color="#0b4f4a" />
    </linearGradient>
  </defs>
  <rect width="64" height="64" rx="18" fill="url(#hintergrund)" />
  <path
    d="M20 18c-2.2 0-4 1.8-4 4v20c0 2.2 1.8 4 4 4h6l6 6h4v-6h8c2.2 0 4-1.8 4-4V22c0-2.2-1.8-4-4-4H20Zm6 9h12a3 3 0 0 1 0 6H26a3 3 0 0 1 0-6Zm0 10h8a3 3 0 0 1 0 6h-8a3 3 0 0 1 0-6Z"
    fill="#ffffff"
  />
</svg>
